<?xml version="1.0" standalone="no"?>
<!DOCTYPE svg PUBLIC "-//W3C//DTD SVG 20010904//EN"
 "http://www.w3.org/TR/2001/REC-SVG-20010904/DTD/svg10.dtd">
<svg version="1.0" xmlns="http://www.w3.org/2000/svg"
 width="512.000000pt" height="512.000000pt" viewBox="0 0 512.000000 512.000000"
 preserveAspectRatio="xMidYMid meet">

<g transform="translate(0.000000,512.000000) scale(0.100000,-0.100000)"
fill="#000000" stroke="none">
<path d="M2257 4195 c-137 -78 -247 -147 -246 -151 1 -5 354 -212 783 -459
l781 -451 5 -940 5 -941 250 142 250 141 0 948 0 948 -260 150 c-143 83 -408
236 -590 341 -181 105 -415 240 -519 300 -104 60 -194 110 -200 112 -6 2 -123
-61 -259 -140z"/>
<path d="M1148 3562 l-118 -67 3 -854 2 -855 863 -498 864 -498 99 56 99 56 0
365 c0 201 -3 363 -8 361 -4 -1 -78 -40 -165 -86 l-157 -83 -543 313 -542 313
-3 403 c-1 221 0 402 2 402 3 0 262 -149 577 -330 315 -182 576 -329 580 -328
4 2 64 35 133 73 l126 70 -3 148 -2 148 -830 479 c-456 264 -837 480 -845 480
-8 -1 -68 -31 -132 -68z"/>
</g>
</svg>
